<svg version="1.1" xmlns="http://www.w3.org/2000/svg" xmlns:xlink="http://www.w3.org/1999/xlink" width="48.000000pt" height="48.000000pt" viewBox="0,0,256,256"><g fill="#ffffff" fill-rule="nonzero" stroke="none" stroke-width="1" stroke-linecap="butt" stroke-linejoin="miter" stroke-miterlimit="10" stroke-dasharray="" stroke-dashoffset="0" font-family="none" font-weight="none" font-size="none" text-anchor="none" style="mix-blend-mode: normal"><g transform="translate(-0.08817,1.14346) scale(5.33333,5.33333)"><g transform="translate(0,48) scale(0.1,-0.1)"><path d="M116,415c-31,-32 -32,-109 -2,-134c19,-16 30,3 16,28c-14,26 -13,64 2,79c21,21 28,13 22,-26c-4,-28 -1,-43 13,-61c17,-20 21,-21 46,-10c21,10 33,10 54,0c25,-11 29,-10 46,10c14,18 17,33 13,61c-6,39 1,47 22,26c15,-15 16,-53 2,-79c-14,-25 -3,-44 16,-28c17,14 28,70 19,98c-10,31 -33,51 -61,51c-25,0 -34,-20 -31,-74c2,-30 2,-30 -53,-30c-55,0 -55,0 -53,30c3,54 -6,74 -31,74c-14,0 -31,-7 -40,-15z"></path><path d="M146,258c-11,-34 -16,-150 -7,-167c17,-30 92,-46 147,-31c59,17 66,35 57,130c-6,57 -12,75 -23,75c-8,0 -15,-4 -16,-10c0,-5 -4,-18 -9,-29c-5,-10 -4,-21 2,-25c6,-3 14,-25 18,-48c6,-37 4,-44 -12,-49c-10,-3 -28,-11 -40,-17c-17,-7 -29,-7 -45,0c-13,6 -31,14 -41,17c-16,5 -18,12 -12,49c4,23 12,45 17,48c7,4 7,17 1,35c-10,31 -31,43 -37,22z"></path><path d="M208,164c-8,-7 21,-64 32,-64c11,0 40,57 32,64c-3,3 -17,6 -32,6c-15,0 -29,-3 -32,-6z"></path></g></g></g></svg>
